:SAMPLES-PER-SECOND 30
:FRAME-RANGE 1-564
:FULLY-SPECIFIED
:DEGREES
300
root  14.7966 38.4008 -30.839 179.479 11.9971 176.776
RightUpLeg  11.7122 5.83772 -3.98519
RightLeg  24.357 6.76233 3.12239
RightFoot  -20.6398 -0.106888 0.403473
RightToes  1.21801e-010 1.2921e-014 -6.02303e-014
Spine  -8.76893 0.42533 -1.671
Spine1  11.8669 0.59386 -1.1988
HEad  17.8625 24.7473 0.389163
LeftShoulder1  0.600244 1.08447 -20.8581
LeftArm  -8.03875 31.6249 -51.9885
LeftForeArm  33.1378 7.49348 -12.3192
LeftHand  -0.00166457 6.75491 2.69593
RightShoulder  2.01672 2.37006 29.6367
RightArm  -19.439 21.5178 56.3296
RightForeArm  64.0874 -5.79424 5.13029
RightHand  0.341353 -7.69425 -17.9637
LeftUpLeg  -20.7269 -2.25773 -3.36449
LeftLeg  6.11375 17.2189 4.38508
LeftFoot  7.05653 0.404533 -2.76353
LeftToes  1.70735e-010 3.74918e-011 3.68705e-011
301
root  14.702 38.4428 -32.3418 178.891 12.0489 175.135
RightUpLeg  9.41479 5.78932 -7.10317
RightLeg  33.0901 9.53375 6.40203
RightFoot  -16.8404 0.0689484 3.81071
RightToes  1.21801e-010 1.2921e-014 -6.02303e-014
Spine  -9.3047 0.380908 -3.60634
Spine1  11.5186 0.627167 -1.72772
HEad  19.8414 25.8138 1.59812
LeftShoulder1  0.579981 1.1482 -20.7077
LeftArm  -9.24579 33.2505 -51.4639
LeftForeArm  34.9468 7.71739 -12.2063
LeftHand  0.00929368 7.87765 2.28144
RightShoulder  1.92917 2.04372 30.1706
RightArm  -18.6682 20.8816 56.83
RightForeArm  62.6832 -5.9269 5.63345
RightHand  0.343538 -7.5713 -18.9874
LeftUpLeg  -19.5033 -1.40903 -5.01726
LeftLeg  8.6919 16.6839 3.36706
LeftFoot  6.48661 0.547964 -3.74528
LeftToes  1.70735e-010 3.74918e-011 3.68705e-011
302
root  14.5372 38.4725 -33.767 178.573 11.8386 174.115
RightUpLeg  4.61127 4.37685 -10.5133
RightLeg  44.4453 11.3268 11.393
RightFoot  -9.60917 -0.206958 9.34116
RightToes  1.21801e-010 1.2921e-014 -6.02303e-014
Spine  -9.71728 0.502293 -3.77059
Spine1  11.2393 0.924006 -3.279
HEad  21.8133 27.3845 2.18332
LeftShoulder1  0.679833 0.744039 -20.3405
LeftArm  -11.0938 33.851 -51.5027
LeftForeArm  36.7608 7.60529 -11.6897
LeftHand  0.0113498 7.9435 2.32803
RightShoulder  1.83669 1.9277 29.1746
RightArm  -18.5277 18.9162 58.0797
RightForeArm  60.9524 -6.00766 5.75881
RightHand  0.279916 -7.24092 -18.432
LeftUpLeg  -18.5873 -1.2709 -6.743
LeftLeg  11.347 15.764 3.24624
LeftFoot  4.97238 0.084894 -0.803122
LeftToes  1.70735e-010 3.74918e-011 3.68705e-011
303
root  14.3808 38.4758 -35.0905 178.243 11.7424 173.376
RightUpLeg  -1.85134 4.37824 -12.4781
RightLeg  56.1857 8.89324 13.6061
RightFoot  0.259866 -1.24041 12.1852
RightToes  1.21801e-010 1.2921e-014 -6.02303e-014
Spine  -9.29412 0.655894 -3.97089
Spine1  10.3534 1.04919 -4.06483
HEad  22.9161 31.2056 1.89065
LeftShoulder1  0.586207 1.11027 -20.5142
LeftArm  -11.6072 33.6593 -51.0338
LeftForeArm  36.9495 7.55096 -11.363
LeftHand  -0.0116882 7.13134 1.66425
RightShoulder  1.80861 2.01403 28.0449
RightArm  -16.8905 17.4127 58.7943
RightForeArm  58.4108 -6.25229 6.73553
RightHand  0.245477 -7.20514 -16.7642
LeftUpLeg  -17.4135 -2.11313 -8.61565
LeftLeg  13.3845 15.7249 4.29847
LeftFoot  3.70897 -0.303461 2.12688
LeftToes  1.70735e-010 3.74918e-011 3.68705e-011
304
root  14.3022 38.5102 -36.3661 177.392 10.8276 172.686
RightUpLeg  -7.46377 4.45227 -13.0183
RightLeg  65.0979 4.91894 10.8918
RightFoot  9.58574 -2.23756 12.4317
RightToes  1.21801e-010 1.2921e-014 -6.02303e-014
Spine  -8.53448 0.537849 -4.94266
Spine1  10.0299 0.758231 -3.92014
HEad  22.7797 36.3392 1.45762
LeftShoulder1  0.502835 1.44586 -20.8734
LeftArm  -11.2927 32.588 -50.2403
LeftForeArm  34.5258 7.56154 -11.1588
LeftHand  -0.0109714 7.20706 1.6657
RightShoulder  1.80674 1.98742 28.1843
RightArm  -14.9459 17.1701 58.5069
RightForeArm  58.0761 -4.91704 8.00328
RightHand  0.178386 -6.89989 -15.1393
LeftUpLeg  -15.1619 -2.50625 -10.3696
LeftLeg  14.7209 15.2026 4.86404
LeftFoot  1.40741 -0.289826 2.51796
LeftToes  1.70735e-010 3.74918e-011 3.68705e-011
305
root  14.2866 38.4634 -37.5814 176.782 9.00136 172.257
RightUpLeg  -11.8707 4.29801 -12.7935
RightLeg  71.7571 2.28955 6.93127
RightFoot  6.11449 -1.52249 10.167
RightToes  1.21801e-010 1.2921e-014 -6.02303e-014
Spine  -8.20822 0.486416 -6.12373
Spine1  10.4058 0.367252 -3.20198
HEad  22.8081 40.446 1.81181
LeftShoulder1  0.416279 1.77517 -21.0493
LeftArm  -10.3838 29.8562 -49.6694
LeftForeArm  30.8776 7.61009 -11.1151
LeftHand  -0.010193 7.14167 1.74941
RightShoulder  1.86974 2.17601 28.1647
RightArm  -12.9164 16.3427 57.9001
RightForeArm  57.741 -1.94839 9.52566
RightHand  0.185275 -6.93365 -15.3131
LeftUpLeg  -13.5111 -1.51501 -11.3142
LeftLeg  16.8818 12.9186 3.94106
LeftFoot  -1.71168 -0.294282 3.61557
LeftToes  1.70735e-010 3.74918e-011 3.68705e-011
306
root  14.2641 38.4447 -38.7638 176.598 6.39316 172.424
RightUpLeg  -16.12 3.88999 -11.7596
RightLeg  75.162 1.24312 4.29366
RightFoot  2.00953 -0.559785 4.89658
RightToes  1.21801e-010 1.2921e-014 -6.02303e-014
Spine  -7.88794 0.597071 -5.60484
Spine1  10.4076 0.477623 -3.72793
HEad  23.0696 43.1684 2.63397
LeftShoulder1  0.479355 1.50089 -20.3642
LeftArm  -10.1077 27.3037 -49.6585
LeftForeArm  25.5574 6.44787 -10.6987
LeftHand  -0.022634 5.74691 2.06911
RightShoulder  1.93245 2.38776 27.9983
RightArm  -11.879 15.0482 57.6954
RightForeArm  56.3312 0.619353 10.4409
RightHand  0.228014 -7.08948 -16.706
LeftUpLeg  -11.8298 -1.77418 -12.2264
LeftLeg  18.3808 10.8557 4.15954
LeftFoot  -4.07414 -0.246235 4.26294
LeftToes  1.70735e-010 3.74918e-011 3.68705e-011
307
root  14.2493 38.4526 -39.9234 176.444 3.21629 173.141
RightUpLeg  -19.6692 3.74341 -10.4378
RightLeg  74.9639 1.02702 3.3
RightFoot  -1.64491 -0.321587 3.65694
RightToes  1.21801e-010 1.2921e-014 -6.02303e-014
Spine  -7.02372 0.745692 -4.25354
Spine1  9.6862 0.700781 -4.35314
HEad  23.2844 44.5277 3.23104
LeftShoulder1  0.438652 1.64064 -20.1345
LeftArm  -11.2554 24.6007 -49.3809
LeftForeArm  15.5542 1.13899 -10.207
LeftHand  -0.113831 21.6645 0.0434884
RightShoulder  2.02691 2.71028 27.7491
RightArm  -12.0909 13.6912 57.7932
RightForeArm  54.4088 2.95889 10.6217
RightHand  0.215989 -7.01619 -16.6032
LeftUpLeg  -10.0022 -1.589 -12.2599
LeftLeg  19.6982 7.84952 3.64698
LeftFoot  -6.4829 -0.157717 4.63641
LeftToes  1.70735e-010 3.74918e-011 3.68705e-011
308
root  14.2671 38.4523 -41.0396 176.493 -0.408797 173.769
RightUpLeg  -22.7545 3.51121 -9.46324
RightLeg  71.6149 0.79277 1.81836
RightFoot  -5.68544 -0.22104 3.68968
RightToes  1.21801e-010 1.2921e-014 -6.02303e-014
Spine  -6.16282 0.892714 -3.2307
Spine1  8.75846 0.97486 -4.81482
HEad  22.3981 44.7856 2.99096
LeftShoulder1  0.391085 1.8248 -20.2054
LeftArm  -13.2881 21.2109 -49.1086
LeftForeArm  4.56841 -4.36873 -9.63697
LeftHand  1.97679 39.0478 7.011
RightShoulder  2.0941 2.93695 27.6027
RightArm  -10.8992 13.1772 58.126
RightForeArm  51.6933 4.78773 10.9334
RightHand  0.190342 -6.88107 -16.1455
LeftUpLeg  -8.33901 -2.02295 -12.2789
LeftLeg  20.7973 5.0255 3.31686
LeftFoot  -8.49564 -0.0776973 5.18476
LeftToes  1.70735e-010 3.74918e-011 3.68705e-011
309
root  14.2849 38.4731 -42.1647 176.508 -4.40423 174.406
RightUpLeg  -24.7609 3.27497 -8.88443
RightLeg  65.2023 -0.0151029 -0.639254
RightFoot  -8.81148 -0.099682 1.80645
RightToes  1.21801e-010 1.2921e-014 -6.02303e-014
Spine  -5.7667 1.08709 -2.09412
Spine1  8.45386 1.3644 -5.1396
HEad  20.8755 43.8419 2.09632
LeftShoulder1  0.442631 1.6278 -20.1725
LeftArm  -15.1361 17.0797 -49.1396
LeftForeArm  -4.66395 -9.24712 -8.87813
LeftHand  8.98357 49.6039 21.6277
RightShoulder  2.15881 3.19285 27.2714
RightArm  -8.66061 13.6588 58.7914
RightForeArm  50.0189 6.46522 11.1023
RightHand  0.205158 -6.97782 -16.2469
LeftUpLeg  -6.34648 -2.56996 -12.0099
LeftLeg  21.3007 1.93657 2.58613
LeftFoot  -10.2149 0.00319629 5.92643
LeftToes  1.70735e-010 3.74918e-011 3.68705e-011
310
root  14.3017 38.4898 -43.2653 176.844 -9.03392 174.832
RightUpLeg  -25.723 2.91426 -9.21834
RightLeg  55.6749 -1.6095 -2.94447
RightFoot  -10.6132 -0.0934695 3.37471
RightToes  1.21801e-010 1.2921e-014 -6.02303e-014
Spine  -5.85718 1.12622 -1.15889
Spine1  8.22085 1.63523 -5.30567
HEad  19.6267 42.2315 0.919064
LeftShoulder1  0.617708 0.928909 -19.751
LeftArm  -16.7103 12.815 -49.3954
LeftForeArm  -12.1836 -12.0047 -7.99036
LeftHand  15.7091 49.9941 36.3028
RightShoulder  2.21993 3.48022 26.7515
RightArm  -5.35343 14.6003 59.7243
RightForeArm  46.9076 8.61363 10.9911
RightHand  0.254755 -7.26788 -16.7818
LeftUpLeg  -4.66701 -3.66026 -11.6629
LeftLeg  21.6603 -1.32967 1.54545
LeftFoot  -11.7713 0.0939068 6.13792
LeftToes  1.70735e-010 3.74918e-011 3.68705e-011
311
root  14.2934 38.5629 -44.3776 177.737 -13.3778 174.874
RightUpLeg  -25.7123 4.09618 -10.9487
RightLeg  43.2027 -2.67074 -2.96902
RightFoot  -9.69873 -0.116258 3.51529
RightToes  1.21801e-010 1.2921e-014 -6.02303e-014
Spine  -6.77002 1.23059 -0.311632
Spine1  8.26119 1.97527 -5.15861
HEad  18.8296 40.5426 -0.635182
LeftShoulder1  0.694712 0.595762 -19.3718
LeftArm  -16.9356 9.10064 -49.0103
LeftForeArm  -16.9013 -13.9925 -7.45407
LeftHand  17.8032 46.9054 43.8744
RightShoulder  2.27083 3.80048 25.9668
RightArm  -1.07304 16.1574 60.9783
RightForeArm  43.2738 10.9924 10.495
RightHand  0.164165 -6.81057 -14.9364
LeftUpLeg  -2.89747 -5.2198 -11.6479
LeftLeg  20.7243 -3.73637 1.07999
LeftFoot  -12.6133 0.150912 6.74666
LeftToes  1.70735e-010 3.74918e-011 3.68705e-011
